<?xml version="1.0" encoding="utf-8"?>
<!-- Generator: Adobe Illustrator 15.0.0, SVG Export Plug-In . SVG Version: 6.00 Build 0)  -->
<!DOCTYPE svg PUBLIC "-//W3C//DTD SVG 1.1//EN" "http://www.w3.org/Graphics/SVG/1.1/DTD/svg11.dtd">
<svg version="1.1" id="Layer_1" xmlns="http://www.w3.org/2000/svg" xmlns:xlink="http://www.w3.org/1999/xlink" x="0px" y="0px"
	 width="640.271px" height="105.208px" viewBox="0 0 640.271 105.208" enable-background="new 0 0 640.271 105.208"
	 xml:space="preserve">
<g>
	<g enable-background="new    ">
		<g>
			<polygon fill="#F92067" points="69.493,15.351 66.108,26.06 42.8,25.909 46.187,15.2 			"/>
		</g>
		<g>
			<polygon fill="#9E3654" points="69.493,15.351 115.949,40.607 112.566,51.319 66.108,26.06 			"/>
		</g>
		<g>
			<polygon fill="#973753" points="66.108,26.06 112.566,51.319 89.259,51.171 42.8,25.909 			"/>
		</g>
	</g>
	<g enable-background="new    ">
		<g>
			<polygon fill="#9E3654" points="42.8,25.909 89.259,51.171 79.11,83.301 32.646,58.04 			"/>
		</g>
		<g>
			<polygon fill="#973753" points="32.646,58.04 79.11,83.301 71.339,83.248 24.878,57.988 			"/>
		</g>
		<g>
			<polygon fill="#F92067" points="35.032,25.856 42.8,25.909 32.646,58.04 24.878,57.988 			"/>
		</g>
		<g>
			<polygon fill="#973753" points="51.572,47.431 98.029,72.687 90.265,72.642 43.801,47.38 			"/>
		</g>
		<g>
			<polygon fill="#F92067" points="52.572,68.9 29.265,68.747 32.646,58.04 48.189,58.137 51.572,47.431 43.801,47.38 
				47.188,36.671 62.724,36.771 			"/>
		</g>
		<g>
			<polygon fill="#973753" points="52.572,68.9 99.03,94.163 75.727,94.004 29.265,68.747 			"/>
		</g>
		<g>
			<polygon fill="#9E3654" points="62.724,36.771 109.18,62.03 99.03,94.163 52.572,68.9 			"/>
		</g>
	</g>
	<g enable-background="new    ">
		<g>
			<polygon fill="#F92067" points="102.805,15.564 99.422,26.275 83.882,26.172 87.267,15.468 			"/>
		</g>
		<g>
			<polygon fill="#9E3554" points="102.805,15.564 149.261,40.827 145.877,51.54 99.422,26.275 			"/>
		</g>
		<g>
			<polygon fill="#973753" points="99.422,26.275 145.877,51.54 130.342,51.438 83.882,26.172 			"/>
		</g>
	</g>
	<g enable-background="new    ">
		<g>
			<polygon fill="#9E3654" points="83.882,26.172 130.342,51.438 123.572,72.855 77.116,47.591 			"/>
		</g>
		<g>
			<polygon fill="#9E3654" points="73.734,58.305 120.19,83.566 116.805,94.277 70.346,69.018 			"/>
		</g>
		<g>
			<polygon fill="#973753" points="70.346,69.018 116.805,94.277 109.041,94.228 62.58,68.968 			"/>
		</g>
		<g>
			<polygon fill="#973753" points="89.269,58.407 135.725,83.667 120.19,83.566 73.734,58.305 			"/>
		</g>
		<g>
			<polygon fill="#F92067" points="99.422,26.275 107.189,26.323 93.655,69.166 85.889,69.113 89.269,58.407 73.734,58.305 
				70.346,69.018 62.58,68.968 76.112,26.125 83.882,26.172 77.116,47.591 92.652,47.696 			"/>
		</g>
		<g>
			<polygon fill="#973753" points="93.655,69.166 140.111,94.426 132.341,94.374 85.889,69.113 			"/>
		</g>
		<g>
			<polygon fill="#9E3554" points="107.189,26.323 153.647,51.591 140.111,94.426 93.655,69.166 			"/>
		</g>
	</g>
	<g enable-background="new    ">
		<g>
			<polygon fill="#9E3554" points="128.348,15.734 174.805,40.992 171.422,51.703 124.965,26.441 			"/>
		</g>
		<g>
			<polygon fill="#9E3554" points="121.581,37.147 168.04,62.409 157.891,94.546 111.431,69.279 			"/>
		</g>
		<g>
			<polygon fill="#973753" points="111.431,69.279 157.891,94.546 150.118,94.488 103.66,69.226 			"/>
		</g>
		<g>
			<polygon fill="#F92067" points="124.965,26.441 132.732,26.491 129.347,37.195 121.581,37.147 111.431,69.279 103.66,69.226 
				120.577,15.685 128.348,15.734 			"/>
		</g>
		<g>
			<polygon fill="#9E3654" points="132.732,26.491 179.192,51.751 175.808,62.459 129.347,37.195 			"/>
		</g>
		<g>
			<polygon fill="#973753" points="129.347,37.195 175.808,62.459 168.04,62.409 121.581,37.147 			"/>
		</g>
	</g>
	<g enable-background="new    ">
		<g>
			<polygon fill="#973753" points="133.734,47.957 180.193,73.225 172.422,73.174 125.964,47.911 			"/>
		</g>
		<g>
			<polygon fill="#F92067" points="143.885,15.835 151.652,15.882 134.736,69.435 126.966,69.38 133.734,47.957 125.964,47.911 
				129.347,37.195 137.121,37.248 			"/>
		</g>
		<g>
			<polygon fill="#9E3554" points="151.652,15.882 198.111,41.14 181.193,94.694 134.736,69.435 			"/>
		</g>
		<g>
			<polygon fill="#973753" points="134.736,69.435 181.193,94.694 173.425,94.642 126.966,69.38 			"/>
		</g>
	</g>
	<g enable-background="new    ">
		<g>
			<polygon fill="#9E3554" points="166.045,26.705 212.5,51.972 209.122,62.676 162.663,37.416 			"/>
		</g>
		<g>
			<polygon fill="#9E3554" points="159.276,48.127 205.737,73.387 202.353,84.093 155.896,58.834 			"/>
		</g>
		<g>
			<polygon fill="#9E3554" points="184.966,16.096 231.427,41.36 228.041,52.067 181.581,26.81 			"/>
		</g>
		<g>
			<polygon fill="#973753" points="181.581,26.81 228.041,52.067 212.5,51.972 166.045,26.705 			"/>
		</g>
		<g>
			<polygon fill="#9E3554" points="178.201,37.514 224.655,62.773 221.276,73.492 174.814,48.228 			"/>
		</g>
		<g>
			<polygon fill="#973753" points="174.814,48.228 221.276,73.492 205.737,73.387 159.276,48.127 			"/>
		</g>
		<g>
			<polygon fill="#973753" points="168.048,69.647 214.506,94.91 191.201,94.757 144.742,69.498 			"/>
		</g>
		<g>
			<polygon fill="#9E3654" points="171.432,58.937 217.891,84.197 214.506,94.91 168.048,69.647 			"/>
		</g>
		<g>
			<polygon fill="#F92067" points="184.966,16.096 181.581,26.81 166.045,26.705 162.663,37.416 178.201,37.514 174.814,48.228 
				159.276,48.127 155.896,58.834 171.432,58.937 168.048,69.647 144.742,69.498 161.66,15.948 			"/>
		</g>
	</g>
	<g enable-background="new    ">
		<g>
			<polygon fill="#F92067" points="191.59,26.87 199.361,26.925 195.978,37.626 188.207,37.579 			"/>
		</g>
		<g>
			<polygon fill="#9E3654" points="199.361,26.925 245.818,52.183 242.435,62.892 195.978,37.626 			"/>
		</g>
		<g>
			<polygon fill="#973753" points="195.978,37.626 242.435,62.892 234.664,62.842 188.207,37.579 			"/>
		</g>
	</g>
	<g enable-background="new    ">
		<g>
			<polygon fill="#F92067" points="226.048,16.365 222.663,27.073 199.361,26.925 202.743,16.216 			"/>
		</g>
		<g>
			<polygon fill="#9E3554" points="226.048,16.365 272.509,41.624 269.125,52.336 222.663,27.073 			"/>
		</g>
		<g>
			<polygon fill="#973753" points="222.663,27.073 269.125,52.336 245.818,52.183 199.361,26.925 			"/>
		</g>
	</g>
	<g enable-background="new    ">
		<g>
			<polygon fill="#F92067" points="208.129,48.441 192.593,48.343 195.978,37.626 211.515,37.734 			"/>
		</g>
		<g>
			<polygon fill="#973753" points="208.129,48.441 254.588,73.703 239.049,73.61 192.593,48.343 			"/>
		</g>
		<g>
			<polygon fill="#9E3654" points="211.515,37.734 257.972,62.992 254.588,73.703 208.129,48.441 			"/>
		</g>
	</g>
	<g enable-background="new    ">
		<g>
			<polygon fill="#F92067" points="178.055,69.713 181.439,58.999 204.749,59.147 201.363,69.861 			"/>
		</g>
		<g>
			<polygon fill="#9E3654" points="204.749,59.147 251.202,84.415 247.821,95.126 201.363,69.861 			"/>
		</g>
		<g>
			<polygon fill="#973753" points="201.363,69.861 247.821,95.126 224.512,94.976 178.055,69.713 			"/>
		</g>
	</g>
	<g enable-background="new    ">
		<g>
			<polygon fill="#F92067" points="212.516,59.197 204.749,59.147 208.129,48.441 215.896,48.493 			"/>
		</g>
		<g>
			<polygon fill="#973753" points="212.516,59.197 258.973,84.465 251.202,84.415 204.749,59.147 			"/>
		</g>
		<g>
			<polygon fill="#9E3554" points="215.896,48.493 262.358,73.759 258.973,84.465 212.516,59.197 			"/>
		</g>
	</g>
	<g enable-background="new    ">
		<g>
			<polygon fill="#9E3554" points="243.821,16.478 290.281,41.74 283.518,63.155 237.056,37.895 			"/>
		</g>
		<g>
			<polygon fill="#9E3554" points="233.672,48.607 280.128,73.871 273.366,95.289 226.905,70.029 			"/>
		</g>
		<g>
			<polygon fill="#973753" points="226.905,70.029 273.366,95.289 265.597,95.238 219.135,69.977 			"/>
		</g>
		<g>
			<polygon fill="#973753" points="249.209,48.713 295.671,73.97 280.128,73.871 233.672,48.607 			"/>
		</g>
		<g>
			<polygon fill="#F92067" points="267.127,16.628 250.213,70.181 242.443,70.127 249.209,48.713 233.672,48.607 226.905,70.029 
				219.135,69.977 236.055,16.427 243.821,16.478 237.056,37.895 252.595,37.996 259.362,16.576 			"/>
		</g>
		<g>
			<polygon fill="#973753" points="250.213,70.181 296.671,95.44 288.902,95.395 242.443,70.127 			"/>
		</g>
		<g>
			<polygon fill="#9E3554" points="267.127,16.628 313.59,41.891 296.671,95.44 250.213,70.181 			"/>
		</g>
	</g>
	<g enable-background="new    ">
		<g>
			<polygon fill="#9E3554" points="318.217,16.959 364.675,42.222 357.908,63.642 311.453,38.378 			"/>
		</g>
		<g>
			<polygon fill="#9E3654" points="308.068,49.091 354.526,74.351 347.758,95.769 301.301,70.504 			"/>
		</g>
		<g>
			<polygon fill="#973753" points="301.301,70.504 347.758,95.769 339.989,95.719 293.532,70.459 			"/>
		</g>
		<g>
			<polygon fill="#973753" points="323.605,49.191 370.066,74.454 354.526,74.351 308.068,49.091 			"/>
		</g>
		<g>
			<polygon fill="#F92067" points="341.524,17.112 324.608,70.659 316.836,70.612 323.605,49.191 308.068,49.091 301.301,70.504 
				293.532,70.459 310.449,16.914 318.217,16.959 311.453,38.378 326.99,38.478 333.753,17.062 			"/>
		</g>
		<g>
			<polygon fill="#973753" points="324.608,70.659 371.063,95.919 363.298,95.871 316.836,70.612 			"/>
		</g>
		<g>
			<polygon fill="#9E3554" points="341.524,17.112 387.982,42.372 371.063,95.919 324.608,70.659 			"/>
		</g>
	</g>
	<g enable-background="new    ">
		<g>
			<polygon fill="#F92067" points="348.148,27.886 355.92,27.935 345.764,60.065 337.995,60.014 			"/>
		</g>
		<g>
			<polygon fill="#9E3554" points="355.92,27.935 402.375,53.197 392.225,85.323 345.764,60.065 			"/>
		</g>
		<g>
			<polygon fill="#973753" points="345.764,60.065 392.225,85.323 384.454,85.278 337.995,60.014 			"/>
		</g>
	</g>
	<g enable-background="new    ">
		<g>
			<polygon fill="#F92067" points="342.382,70.775 345.764,60.065 361.303,60.167 357.919,70.875 			"/>
		</g>
		<g>
			<polygon fill="#9E3654" points="361.303,60.167 407.76,85.432 404.38,96.133 357.919,70.875 			"/>
		</g>
		<g>
			<polygon fill="#973753" points="357.919,70.875 404.38,96.133 388.843,96.035 342.382,70.775 			"/>
		</g>
	</g>
	<g enable-background="new    ">
		<g>
			<polygon fill="#F92067" points="374.836,17.32 371.454,28.04 355.92,27.935 359.301,17.225 			"/>
		</g>
		<g>
			<polygon fill="#9E3554" points="374.836,17.32 421.294,42.588 417.913,53.297 371.454,28.04 			"/>
		</g>
		<g>
			<polygon fill="#973753" points="371.454,28.04 417.913,53.297 402.375,53.197 355.92,27.935 			"/>
		</g>
		<g>
			<polygon fill="#F92067" points="371.454,28.04 379.225,28.087 369.075,60.214 361.303,60.167 			"/>
		</g>
		<g>
			<polygon fill="#9E3654" points="379.225,28.087 425.683,53.347 415.53,85.477 369.075,60.214 			"/>
		</g>
		<g>
			<polygon fill="#973753" points="369.075,60.214 415.53,85.477 407.76,85.432 361.303,60.167 			"/>
		</g>
	</g>
	<g enable-background="new    ">
		<g>
			<polygon fill="#F92067" points="389.229,28.152 397,28.2 393.618,38.906 385.847,38.858 			"/>
		</g>
		<g>
			<polygon fill="#9E3654" points="397,28.2 443.458,53.458 440.071,64.172 393.618,38.906 			"/>
		</g>
		<g>
			<polygon fill="#973753" points="393.618,38.906 440.071,64.172 432.303,64.118 385.847,38.858 			"/>
		</g>
	</g>
	<g enable-background="new    ">
		<g>
			<polygon fill="#F92067" points="423.689,17.64 420.302,28.351 397,28.2 400.384,17.497 			"/>
		</g>
		<g>
			<polygon fill="#9E3554" points="423.689,17.64 470.148,42.904 466.761,53.612 420.302,28.351 			"/>
		</g>
		<g>
			<polygon fill="#973753" points="420.302,28.351 466.761,53.612 443.458,53.458 397,28.2 			"/>
		</g>
	</g>
	<g enable-background="new    ">
		<g>
			<polygon fill="#F92067" points="405.768,49.721 390.233,49.623 393.618,38.906 409.149,39.012 			"/>
		</g>
		<g>
			<polygon fill="#973753" points="405.768,49.721 452.229,74.98 436.687,74.885 390.233,49.623 			"/>
		</g>
		<g>
			<polygon fill="#9E3554" points="409.149,39.012 455.611,64.272 452.229,74.98 405.768,49.721 			"/>
		</g>
	</g>
	<g enable-background="new    ">
		<g>
			<polygon fill="#F92067" points="375.696,70.99 379.078,60.276 402.386,60.428 399,71.142 			"/>
		</g>
		<g>
			<polygon fill="#9E3654" points="402.386,60.428 448.842,85.695 445.46,96.398 399,71.142 			"/>
		</g>
		<g>
			<polygon fill="#973753" points="399,71.142 445.46,96.398 422.155,96.247 375.696,70.99 			"/>
		</g>
	</g>
	<g enable-background="new    ">
		<g>
			<polygon fill="#F92067" points="410.155,60.483 402.386,60.428 405.768,49.721 413.539,49.769 			"/>
		</g>
		<g>
			<polygon fill="#973753" points="410.155,60.483 456.613,85.745 448.842,85.695 402.386,60.428 			"/>
		</g>
		<g>
			<polygon fill="#9E3554" points="413.539,49.769 459.995,75.039 456.613,85.745 410.155,60.483 			"/>
		</g>
	</g>
	<g enable-background="new    ">
		<g>
			<polygon fill="#973753" points="438.08,28.469 484.541,53.729 476.767,53.68 430.312,28.419 			"/>
		</g>
		<g>
			<polygon fill="#9E3554" points="457.002,17.855 503.462,43.12 500.078,53.829 453.62,28.569 			"/>
		</g>
		<g>
			<polygon fill="#973753" points="453.62,28.569 500.078,53.829 492.304,53.778 445.849,28.517 			"/>
		</g>
		<g>
			<polygon fill="#F92067" points="457.002,17.855 453.62,28.569 445.849,28.517 432.316,71.354 424.545,71.307 438.08,28.469 
				430.312,28.419 433.695,17.705 			"/>
		</g>
		<g>
			<polygon fill="#9E3554" points="445.849,28.517 492.304,53.778 478.769,96.617 432.316,71.354 			"/>
		</g>
		<g>
			<polygon fill="#973753" points="432.316,71.354 478.769,96.617 471.003,96.563 424.545,71.307 			"/>
		</g>
	</g>
	<g enable-background="new    ">
		<g>
			<polygon fill="#9E3654" points="471.394,28.682 517.85,53.947 514.471,64.65 468.009,39.391 			"/>
		</g>
		<g>
			<polygon fill="#9E3554" points="464.628,50.102 511.083,75.362 507.702,86.074 461.244,60.812 			"/>
		</g>
		<g>
			<polygon fill="#9E3554" points="490.316,18.079 536.774,43.335 533.389,54.045 486.931,28.777 			"/>
		</g>
		<g>
			<polygon fill="#973753" points="486.931,28.777 533.389,54.045 517.85,53.947 471.394,28.682 			"/>
		</g>
		<g>
			<polygon fill="#9E3654" points="483.549,39.489 530.005,64.754 526.621,75.465 480.163,50.205 			"/>
		</g>
		<g>
			<polygon fill="#973753" points="480.163,50.205 526.621,75.465 511.083,75.362 464.628,50.102 			"/>
		</g>
		<g>
			<polygon fill="#973753" points="473.394,71.623 519.852,96.879 496.546,96.731 450.091,71.472 			"/>
		</g>
		<g>
			<polygon fill="#9E3554" points="476.781,60.917 523.237,86.18 519.852,96.879 473.394,71.623 			"/>
		</g>
		<g>
			<polygon fill="#F92067" points="490.316,18.079 486.931,28.777 471.394,28.682 468.009,39.391 483.549,39.489 480.163,50.205 
				464.628,50.102 461.244,60.812 476.781,60.917 473.394,71.623 450.091,71.472 467.009,17.923 			"/>
		</g>
	</g>
	<g enable-background="new    ">
		<g>
			<polygon fill="#9E3654" points="508.09,18.191 554.548,43.448 541.014,86.286 494.555,61.026 			"/>
		</g>
		<g>
			<polygon fill="#F92067" points="508.09,18.191 494.555,61.026 510.092,61.128 506.711,71.839 483.404,71.688 500.321,18.137 			
				"/>
		</g>
		<g>
			<polygon fill="#9E3654" points="510.092,61.128 556.551,86.392 553.169,97.097 506.711,71.839 			"/>
		</g>
		<g>
			<polygon fill="#973753" points="506.711,71.839 553.169,97.097 529.858,96.948 483.404,71.688 			"/>
		</g>
	</g>
	<g enable-background="new    ">
		<g>
			<polygon fill="#F92067" points="564.712,18.553 561.325,29.265 538.017,29.111 541.404,18.399 			"/>
		</g>
		<g>
			<polygon fill="#9E3554" points="564.712,18.553 611.165,43.817 607.787,54.527 561.325,29.265 			"/>
		</g>
		<g>
			<polygon fill="#973753" points="561.325,29.265 607.787,54.527 584.478,54.379 538.017,29.111 			"/>
		</g>
	</g>
	<g enable-background="new    ">
		<g>
			<polygon fill="#F92067" points="530.25,29.061 538.017,29.111 534.635,39.822 526.868,39.768 			"/>
		</g>
		<g>
			<polygon fill="#9E3554" points="538.017,29.111 584.478,54.379 581.094,65.082 534.635,39.822 			"/>
		</g>
		<g>
			<polygon fill="#973753" points="534.635,39.822 581.094,65.082 573.326,65.036 526.868,39.768 			"/>
		</g>
	</g>
	<g enable-background="new    ">
		<g>
			<polygon fill="#F92067" points="546.791,50.637 531.253,50.534 534.635,39.822 550.172,39.921 			"/>
		</g>
		<g>
			<polygon fill="#973753" points="546.791,50.637 593.249,75.896 577.712,75.794 531.253,50.534 			"/>
		</g>
		<g>
			<polygon fill="#9E3554" points="550.172,39.921 596.631,65.185 593.249,75.896 546.791,50.637 			"/>
		</g>
	</g>
	<g enable-background="new    ">
		<g>
			<polygon fill="#F92067" points="516.714,71.903 520.098,61.192 543.404,61.346 540.021,72.055 			"/>
		</g>
		<g>
			<polygon fill="#9E3654" points="543.404,61.346 589.862,86.606 586.479,97.312 540.021,72.055 			"/>
		</g>
		<g>
			<polygon fill="#973753" points="540.021,72.055 586.479,97.312 563.172,97.161 516.714,71.903 			"/>
		</g>
	</g>
	<g enable-background="new    ">
		<g>
			<polygon fill="#F92067" points="551.175,61.394 543.404,61.346 546.791,50.637 554.557,50.685 			"/>
		</g>
		<g>
			<polygon fill="#973753" points="551.175,61.394 597.633,86.656 589.862,86.606 543.404,61.346 			"/>
		</g>
		<g>
			<polygon fill="#9E3654" points="554.557,50.685 601.018,75.945 597.633,86.656 551.175,61.394 			"/>
		</g>
	</g>
</g>
</svg>
